<mxfile host="65bd71144e">
    <diagram id="HIP3nbAZw_EuaXWnEj3U" name="Page-1">
        <mxGraphModel dx="1678" dy="437" grid="1" gridSize="10" guides="1" tooltips="1" connect="1" arrows="1" fold="1" page="1" pageScale="1" pageWidth="850" pageHeight="1100" math="0" shadow="0">
            <root>
                <mxCell id="0"/>
                <mxCell id="1" parent="0"/>
                <mxCell id="2" value="Start" style="strokeWidth=2;html=1;shape=mxgraph.flowchart.terminator;whiteSpace=wrap;" parent="1" vertex="1">
                    <mxGeometry x="50" y="60" width="100" height="60" as="geometry"/>
                </mxCell>
                <mxCell id="3" value="Stop" style="strokeWidth=2;html=1;shape=mxgraph.flowchart.terminator;whiteSpace=wrap;" parent="1" vertex="1">
                    <mxGeometry x="50" y="280" width="100" height="60" as="geometry"/>
                </mxCell>
                <mxCell id="5" value="on start" style="text;html=1;align=center;verticalAlign=middle;resizable=0;points=[];autosize=1;strokeColor=none;fillColor=none;" parent="1" vertex="1">
                    <mxGeometry x="60" y="15" width="60" height="30" as="geometry"/>
                </mxCell>
                <mxCell id="6" value="display happy face" style="shape=parallelogram;html=1;strokeWidth=2;perimeter=parallelogramPerimeter;whiteSpace=wrap;rounded=1;arcSize=12;size=0.23;" parent="1" vertex="1">
                    <mxGeometry x="25" y="160" width="150" height="80" as="geometry"/>
                </mxCell>
                <mxCell id="7" value="Stop" style="strokeWidth=2;html=1;shape=mxgraph.flowchart.terminator;whiteSpace=wrap;" parent="1" vertex="1">
                    <mxGeometry x="795" y="1210" width="100" height="60" as="geometry"/>
                </mxCell>
                <mxCell id="8" value="Start" style="strokeWidth=2;html=1;shape=mxgraph.flowchart.terminator;whiteSpace=wrap;" parent="1" vertex="1">
                    <mxGeometry x="300" y="60" width="100" height="60" as="geometry"/>
                </mxCell>
                <mxCell id="9" value="Button A" style="text;html=1;align=center;verticalAlign=middle;resizable=0;points=[];autosize=1;strokeColor=none;fillColor=none;" parent="1" vertex="1">
                    <mxGeometry x="315" y="10" width="70" height="30" as="geometry"/>
                </mxCell>
                <mxCell id="10" value="loop forever" style="strokeWidth=2;html=1;shape=mxgraph.flowchart.decision;whiteSpace=wrap;" parent="1" vertex="1">
                    <mxGeometry x="300" y="150" width="100" height="100" as="geometry"/>
                </mxCell>
                <mxCell id="11" value="distanceToObject = sonar checks distance" style="rounded=1;whiteSpace=wrap;html=1;absoluteArcSize=1;arcSize=14;strokeWidth=2;" parent="1" vertex="1">
                    <mxGeometry x="810" y="390" width="100" height="100" as="geometry"/>
                </mxCell>
                <mxCell id="12" value="display distanceToObject followed by &quot;cm&quot;" style="shape=parallelogram;html=1;strokeWidth=2;perimeter=parallelogramPerimeter;whiteSpace=wrap;rounded=1;arcSize=12;size=0.23;" parent="1" vertex="1">
                    <mxGeometry x="760" y="560" width="180" height="140" as="geometry"/>
                </mxCell>
                <mxCell id="13" value="if button a is pressed play code" style="strokeWidth=2;html=1;shape=mxgraph.flowchart.decision;whiteSpace=wrap;" vertex="1" parent="1">
                    <mxGeometry x="446.25" y="210" width="137.5" height="150" as="geometry"/>
                </mxCell>
                <mxCell id="14" value="loop forever" style="strokeWidth=2;html=1;shape=mxgraph.flowchart.decision;whiteSpace=wrap;" vertex="1" parent="1">
                    <mxGeometry x="670" y="340" width="100" height="100" as="geometry"/>
                </mxCell>
                <mxCell id="15" value="if&amp;nbsp; distanceToObject &amp;gt;= 11" style="strokeWidth=2;html=1;shape=mxgraph.flowchart.decision;whiteSpace=wrap;" vertex="1" parent="1">
                    <mxGeometry x="770" y="760" width="150" height="150" as="geometry"/>
                </mxCell>
                <mxCell id="16" value="move stepper motors forward 10 cm" style="rounded=1;whiteSpace=wrap;html=1;absoluteArcSize=1;arcSize=14;strokeWidth=2;" vertex="1" parent="1">
                    <mxGeometry x="1030" y="785" width="100" height="100" as="geometry"/>
                </mxCell>
                <mxCell id="17" value="pause for half a second" style="shape=parallelogram;html=1;strokeWidth=2;perimeter=parallelogramPerimeter;whiteSpace=wrap;rounded=1;arcSize=12;size=0.23;" vertex="1" parent="1">
                    <mxGeometry x="970" y="970" width="210" height="70" as="geometry"/>
                </mxCell>
                <mxCell id="18" value="move stepper motors backward 10 cm&lt;br&gt;stepper motors turn 90 deegres right" style="rounded=1;whiteSpace=wrap;html=1;absoluteArcSize=1;arcSize=14;strokeWidth=2;" vertex="1" parent="1">
                    <mxGeometry x="790" y="970" width="100" height="100" as="geometry"/>
                </mxCell>
                <mxCell id="19" value="pause for half a second" style="shape=parallelogram;html=1;strokeWidth=2;perimeter=parallelogramPerimeter;whiteSpace=wrap;rounded=1;arcSize=12;size=0.23;" vertex="1" parent="1">
                    <mxGeometry x="735" y="1110" width="210" height="70" as="geometry"/>
                </mxCell>
            </root>
        </mxGraphModel>
    </diagram>
</mxfile>